<?xml version="1.0" standalone="no"?>
<!DOCTYPE svg PUBLIC "-//W3C//DTD SVG 20010904//EN"
 "http://www.w3.org/TR/2001/REC-SVG-20010904/DTD/svg10.dtd">
<svg version="1.0" xmlns="http://www.w3.org/2000/svg"
 width="5315.000000pt" height="5315.000000pt" viewBox="0 0 5315.000000 5315.000000"
 preserveAspectRatio="xMidYMid meet">

<g transform="translate(0.000000,5315.000000) scale(0.100000,-0.100000)"
fill="#000000" stroke="none">
<path d="M16085 33944 c-11 -2 -45 -9 -75 -15 -74 -14 -223 -88 -289 -142
-108 -90 -187 -211 -233 -357 l-23 -75 0 -6780 0 -6780 23 -75 c68 -216 197
-364 395 -455 134 -61 126 -60 777 -60 669 0 651 -2 800 76 183 95 311 252
367 450 17 62 18 318 18 6844 0 6526 -1 6782 -18 6844 -40 139 -133 284 -235
366 -80 64 -221 131 -314 150 -64 12 -170 15 -625 14 -301 -1 -557 -3 -568 -5z"/>
<path d="M35845 33944 c-11 -2 -45 -9 -75 -15 -77 -15 -225 -89 -290 -145
-114 -98 -198 -229 -237 -374 -17 -62 -18 -380 -18 -6835 0 -6455 1 -6773 18
-6835 57 -208 193 -374 382 -465 149 -72 131 -70 795 -70 545 0 600 2 659 18
246 70 441 265 508 508 17 61 18 382 18 6844 0 6462 -1 6783 -18 6844 -66 240
-258 434 -503 507 -53 16 -116 18 -639 20 -319 1 -589 0 -600 -2z"/>
<path d="M13413 31989 c-119 -38 -235 -151 -280 -274 -17 -48 -18 -237 -21
-5110 -2 -3840 0 -5073 9 -5115 13 -61 48 -137 88 -189 42 -56 137 -119 211
-142 64 -19 88 -20 516 -17 l450 3 75 37 c93 46 168 122 212 215 l32 68 0
5110 0 5110 -32 68 c-44 93 -119 169 -212 215 l-75 37 -455 2 c-432 2 -459 1
-518 -18z"/>
<path d="M38668 31991 c-120 -39 -216 -124 -272 -241 l-31 -65 0 -5110 0
-5110 32 -65 c41 -84 93 -144 165 -190 107 -69 127 -72 623 -68 429 3 441 4
495 25 111 46 207 142 253 253 l22 55 0 5100 0 5100 -22 55 c-46 111 -142 207
-253 253 -54 22 -64 22 -505 24 -414 2 -455 1 -507 -16z"/>
<path d="M18600 26575 l0 -1335 7935 0 7935 0 0 1335 0 1335 -7935 0 -7935 0
0 -1335z m7604 965 c38 -6 88 -19 112 -30 67 -29 147 -111 180 -183 26 -54 29
-73 29 -157 0 -82 -4 -103 -27 -152 -37 -79 -98 -142 -177 -181 l-66 -32
-3410 0 -3410 0 -67 33 c-78 38 -139 101 -176 182 -22 47 -26 70 -26 150 -1
83 3 103 26 152 54 116 163 199 286 217 84 13 6641 13 6726 1z"/>
<path d="M40710 26575 l0 -1333 43 10 c315 70 579 470 638 970 16 140 6 717
-15 822 -88 448 -339 791 -623 854 l-43 10 0 -1333z"/>
<path d="M12302 27865 c-164 -76 -304 -230 -407 -447 -116 -245 -145 -415
-145 -843 0 -359 16 -492 82 -689 97 -291 286 -526 491 -611 l37 -15 0 1315
c0 723 -1 1315 -2 1315 -2 0 -27 -11 -56 -25z"/>
</g>
</svg>
