<?xml version="1.0" standalone="no"?>
<!DOCTYPE svg PUBLIC "-//W3C//DTD SVG 20010904//EN"
 "http://www.w3.org/TR/2001/REC-SVG-20010904/DTD/svg10.dtd">
<svg version="1.0" xmlns="http://www.w3.org/2000/svg"
 width="5315.000000pt" height="5315.000000pt" viewBox="0 0 5315.000000 5315.000000"
 preserveAspectRatio="xMidYMid meet">

<g transform="translate(0.000000,5315.000000) scale(0.100000,-0.100000)"
fill="#000000" stroke="none">
<path d="M16000 34689 c-577 -76 -1043 -464 -1219 -1012 -57 -179 -63 -229
-68 -630 -4 -271 -8 -367 -17 -363 -43 18 -155 48 -230 61 -127 22 -983 22
-1109 0 -194 -34 -382 -116 -535 -235 -223 -172 -364 -397 -439 -697 -15 -62
-17 -200 -20 -1604 l-3 -1537 -68 -12 c-471 -87 -879 -437 -1107 -949 -91
-203 -147 -402 -182 -636 -22 -153 -26 -788 -5 -955 97 -775 523 -1383 1109
-1581 66 -22 221 -59 249 -59 2 0 5 -692 7 -1537 3 -1687 -1 -1561 62 -1749
139 -415 523 -733 959 -793 125 -18 970 -14 1081 4 79 13 176 38 226 60 16 6
17 -25 22 -362 5 -401 11 -450 68 -630 101 -318 308 -593 584 -775 122 -81
206 -122 344 -168 215 -72 217 -72 886 -77 643 -5 710 -2 895 44 418 102 769
384 956 768 82 168 133 348 148 520 3 33 5 1101 5 2373 l1 2312 7935 0 7935 0
0 -2297 c1 -1264 3 -2327 6 -2363 26 -348 168 -661 412 -912 171 -176 358
-294 577 -367 221 -73 229 -74 890 -79 645 -4 721 0 911 49 539 137 947 570
1066 1129 18 83 21 143 25 468 3 204 6 372 7 372 2 0 29 -9 62 -21 32 -11 106
-29 163 -40 93 -17 153 -19 570 -19 511 0 561 4 736 61 162 52 311 140 441
262 192 179 331 451 364 709 6 53 10 607 10 1565 l0 1482 33 5 c17 3 66 10
107 17 136 21 300 79 425 152 395 229 695 658 821 1172 22 90 29 126 49 258
23 144 32 683 14 882 -51 592 -314 1126 -704 1429 -225 175 -399 246 -712 292
l-33 5 -2 1537 -3 1537 -27 96 c-52 191 -119 326 -226 461 -184 231 -441 381
-738 433 -127 22 -982 22 -1110 0 -78 -14 -174 -39 -226 -60 -15 -6 -17 24
-21 367 -4 328 -7 385 -25 470 -63 295 -203 552 -413 758 -203 199 -442 326
-739 392 -104 23 -112 23 -765 23 -648 0 -662 0 -761 -22 -311 -69 -534 -190
-750 -407 -176 -176 -280 -342 -356 -566 -31 -94 -65 -261 -72 -360 -3 -36 -5
-1099 -5 -2362 l-1 -2298 -7935 0 -7935 0 0 2323 c0 2001 -2 2336 -15 2427
-48 336 -189 617 -425 849 -203 200 -439 325 -742 393 -89 21 -122 22 -723 24
-346 1 -659 -2 -695 -7z m1234 -749 c160 -23 282 -86 401 -205 119 -119 182
-241 205 -401 13 -95 13 -13423 0 -13518 -23 -160 -86 -282 -205 -401 -89 -89
-159 -135 -262 -170 -121 -42 -202 -47 -773 -42 -452 3 -544 6 -595 20 -260
70 -455 266 -520 523 -16 65 -17 446 -17 6829 0 4840 3 6773 11 6807 42 184
151 343 300 442 104 69 182 97 331 120 59 8 1060 5 1124 -4z m19841 -14 c33
-9 98 -36 145 -59 69 -33 102 -58 175 -132 74 -73 99 -106 132 -175 23 -47 49
-114 59 -150 15 -60 16 -547 16 -6835 0 -6288 -1 -6775 -16 -6835 -10 -36 -36
-103 -59 -150 -33 -68 -58 -102 -127 -170 -127 -126 -249 -189 -412 -210 -103
-13 -1047 -13 -1144 1 -291 40 -523 248 -601 539 -17 62 -18 417 -18 6825 0
6408 1 6763 18 6825 46 171 158 333 295 424 102 67 178 95 332 120 14 2 277 3
585 2 498 -2 567 -4 620 -20z m-22700 -1930 c152 -40 271 -151 315 -293 20
-65 20 -84 20 -5132 l0 -5066 -24 -67 c-51 -144 -161 -244 -311 -284 -76 -21
-849 -20 -928 1 -83 22 -133 50 -199 113 -67 63 -110 145 -127 236 -16 84 -16
10058 0 10142 17 91 60 173 127 236 64 62 116 91 195 113 74 20 858 21 932 1z
m25297 -14 c117 -47 213 -143 260 -260 l23 -57 0 -5090 0 -5090 -23 -57 c-47
-117 -143 -213 -260 -260 -56 -23 -64 -23 -480 -26 -277 -2 -442 1 -476 8
-167 34 -298 159 -342 325 -11 41 -14 915 -14 5100 0 4185 3 5059 14 5100 42
160 164 281 321 321 37 10 162 12 485 11 430 -2 436 -2 492 -25z m-5202 -5407
l0 -1335 -7935 0 -7935 0 0 1335 0 1335 7935 0 7935 0 0 -1335z m6396 1276
c274 -136 478 -502 524 -941 13 -124 13 -560 0 -675 -40 -355 -171 -646 -375
-833 -72 -66 -199 -136 -267 -148 l-38 -6 0 1327 0 1328 38 -6 c20 -4 73 -24
118 -46z m-28506 -1276 c0 -945 -3 -1305 -11 -1305 -29 0 -155 79 -216 134
-203 186 -336 484 -373 836 -5 52 -10 203 -10 335 0 132 5 283 10 335 37 352
170 650 373 836 62 56 185 133 215 134 9 0 12 -268 12 -1305z"/>
<path d="M19452 27539 c-101 -20 -210 -106 -259 -207 -25 -52 -28 -67 -28
-162 0 -91 3 -112 25 -155 37 -76 133 -167 203 -193 l58 -22 3407 2 3407 3 57
28 c74 36 139 101 175 175 25 51 28 67 28 162 0 93 -3 112 -27 162 -35 75
-104 142 -186 181 l-67 32 -3375 1 c-1856 1 -3394 -2 -3418 -7z"/>
</g>
</svg>
