<?xml version="1.0" standalone="no"?>
<!DOCTYPE svg PUBLIC "-//W3C//DTD SVG 20010904//EN"
 "http://www.w3.org/TR/2001/REC-SVG-20010904/DTD/svg10.dtd">
<svg version="1.0" xmlns="http://www.w3.org/2000/svg"
 width="3000.000000pt" height="2000.000000pt" viewBox="0 0 3000.000000 2000.000000"
 preserveAspectRatio="xMidYMid meet">

<g transform="translate(0.000000,2000.000000) scale(0.100000,-0.100000)"
fill="#000000" stroke="none">
<path d="M10 10000 l0 -10000 14995 0 14995 0 0 10000 0 10000 -14995 0
-14995 0 0 -10000z m16955 5282 c6 -4 41 -61 79 -127 38 -66 73 -127 79 -135
9 -15 -25 -80 -126 -242 l-29 -48 -162 0 -161 0 -36 68 c-20 37 -35 72 -32 79
2 7 -1 22 -7 35 -22 45 28 -22 63 -84 l32 -58 141 0 141 0 64 112 c35 61 65
115 67 119 3 6 -110 210 -128 232 -4 4 -67 10 -142 14 l-135 6 -34 -59 c-50
-89 -79 -129 -79 -111 0 9 6 22 13 29 8 6 11 23 9 36 -4 19 -2 23 8 17 8 -5
11 -4 6 3 -3 6 6 34 21 61 l28 50 80 4 c165 7 230 6 240 -1z m3147 -1296 c143
-28 263 -91 416 -219 125 -104 599 -505 837 -707 100 -85 219 -186 265 -225
46 -38 145 -122 219 -185 144 -122 345 -292 416 -350 23 -19 172 -145 331
-280 291 -247 517 -438 609 -513 28 -22 89 -80 136 -127 69 -71 95 -106 135
-186 28 -54 53 -109 56 -122 6 -22 8 -22 110 -15 205 15 820 9 998 -11 576
-62 999 -185 1500 -436 409 -204 749 -449 1047 -751 237 -241 377 -437 529
-739 235 -468 347 -946 348 -1485 0 -312 -27 -540 -100 -830 -228 -912 -813
-1664 -1603 -2059 -771 -386 -1750 -416 -2436 -73 -188 93 -390 250 -525 405
-158 183 -265 408 -306 646 -20 113 -14 385 10 491 85 373 308 708 605 907
136 91 272 158 565 280 394 163 549 245 708 376 509 415 635 1113 322 1772
-182 380 -502 699 -909 903 -199 100 -406 172 -630 218 -188 39 -192 39 -201
-8 -10 -62 -34 -142 -61 -201 -42 -96 -74 -140 -413 -577 -329 -423 -437 -562
-485 -626 -27 -36 -97 -126 -154 -200 -58 -74 -167 -215 -243 -314 -77 -99
-173 -223 -213 -275 -101 -129 -241 -310 -355 -459 -52 -69 -145 -188 -207
-267 -158 -202 -149 -185 -124 -236 40 -84 42 -121 39 -723 l-3 -580 -28 -61
c-16 -34 -49 -82 -75 -107 -73 -72 -133 -94 -302 -112 -80 -9 -262 -29 -405
-45 -143 -16 -366 -41 -495 -55 -129 -15 -250 -24 -270 -20 -25 4 -31 3 -20
-4 18 -13 5 -14 -41 -4 -33 7 -33 7 -9 14 l25 8 -25 -2 c-18 -1 -24 -7 -22
-19 2 -15 -5 -18 -50 -17 -52 2 -53 2 -13 8 l40 7 -60 8 c-79 10 -89 14 -37
15 30 1 41 5 36 13 -4 7 -3 8 5 4 6 -4 49 -9 94 -10 45 -2 97 -7 116 -11 25
-6 32 -5 27 3 -4 7 -19 12 -34 12 -15 0 -40 7 -56 15 -16 8 -54 15 -87 15 -33
0 -59 4 -59 9 0 7 28 13 118 23 14 2 17 28 2 28 -6 0 -10 87 -10 240 0 185 3
240 13 240 13 0 53 47 73 86 15 28 -3 47 -18 19 -9 -14 -12 -15 -20 -4 -7 10
-8 8 -5 -9 5 -20 3 -21 -9 -11 -12 10 -15 10 -12 -1 2 -7 -8 -20 -22 -27 -25
-14 -24 -14 9 -8 l33 7 -22 -22 c-16 -16 -25 -19 -35 -10 -7 6 -26 8 -42 5
l-28 -5 30 15 c29 14 26 14 -45 10 -41 -3 -91 -9 -111 -14 -20 -4 -61 -7 -90
-5 -45 3 -49 2 -24 -6 29 -9 29 -9 -7 -7 -29 2 -38 -1 -39 -13 0 -12 -2 -12
-7 2 -14 36 -30 0 -34 -79 -3 -49 -1 -80 5 -76 5 3 3 -5 -4 -18 -8 -13 -16
-51 -19 -84 l-5 -60 -100 -12 c-101 -13 -154 -17 -190 -14 -18 1 -19 2 -2 12
11 6 17 22 17 45 0 37 37 464 66 754 9 91 20 169 25 174 8 9 23 11 134 14 45
2 56 5 45 13 -11 7 2 8 45 4 36 -3 52 -2 41 3 -12 5 9 8 60 8 43 0 85 3 93 8
8 5 41 10 73 11 32 1 62 6 66 10 4 4 -6 5 -21 3 -22 -4 -27 -2 -25 10 2 13 16
15 66 13 39 -1 62 2 62 8 0 6 -11 11 -25 11 -14 0 -25 5 -25 10 0 6 -18 10
-41 10 -28 0 -39 4 -37 13 7 19 67 21 74 3 5 -12 21 -16 70 -16 36 0 64 4 64
10 0 6 -15 10 -34 10 -67 0 -66 -4 -66 165 l0 154 -27 3 c-22 3 -15 6 27 15
73 14 20 16 -75 2 -38 -5 -115 -12 -170 -15 -55 -2 -125 -9 -155 -14 -30 -5
-84 -12 -120 -15 -36 -2 -105 -9 -155 -15 -298 -32 -389 -42 -560 -60 -104
-12 -246 -27 -315 -36 -69 -8 -228 -25 -355 -39 -237 -25 -988 -108 -1130
-125 -44 -5 -168 -19 -275 -30 -107 -12 -269 -30 -360 -40 -91 -11 -253 -29
-360 -40 -107 -12 -269 -30 -360 -40 -91 -11 -289 -33 -440 -50 -592 -65 -806
-90 -835 -99 -98 -29 -195 -112 -246 -212 -32 -62 -33 -68 -37 -211 l-4 -147
-42 -6 c-22 -3 -234 -25 -471 -50 -236 -25 -536 -56 -665 -70 -129 -14 -728
-77 -1330 -140 -602 -64 -1219 -129 -1370 -145 -151 -16 -468 -50 -705 -74
-236 -25 -750 -79 -1141 -121 -738 -78 -871 -86 -983 -60 -300 71 -528 283
-619 575 -29 92 -26 64 -97 750 -36 344 -70 666 -75 715 -6 50 -37 344 -70
655 -164 1553 -312 2959 -336 3185 -23 213 -16 331 28 461 41 123 104 226 195
320 76 79 126 115 228 167 133 67 159 72 815 142 280 29 371 37 376 32 7 -7
30 -196 49 -407 22 -249 56 -358 151 -482 64 -83 135 -140 237 -192 50 -25 86
-46 79 -46 -7 0 -10 -4 -7 -10 3 -5 15 -10 26 -10 11 0 31 -11 44 -24 13 -14
34 -27 45 -31 11 -3 20 -11 20 -16 0 -5 9 -9 19 -9 11 0 23 -4 26 -10 3 -5 17
-10 31 -10 13 0 24 -4 24 -9 0 -5 21 -18 48 -28 41 -16 76 -18 276 -17 171 1
230 5 236 14 5 9 55 14 171 18 139 4 168 8 191 23 22 16 45 19 151 19 71 0
127 4 129 10 2 5 73 14 158 20 85 6 157 15 158 20 2 6 25 10 51 10 26 0 52 5
58 11 6 6 68 11 148 13 92 2 139 7 144 15 5 7 51 14 124 18 64 3 117 10 117
15 0 4 72 8 160 8 139 0 160 2 160 16 0 13 14 15 94 13 79 -2 97 0 112 15 15
16 29 18 88 13 81 -7 188 2 180 14 -3 5 36 9 86 9 50 0 89 4 86 9 -5 8 77 18
179 21 27 1 52 5 55 10 3 5 75 10 160 13 101 3 155 8 158 16 2 7 33 11 82 11
43 0 80 4 82 10 2 5 57 14 123 19 66 5 130 11 143 14 12 3 20 2 17 -3 -5 -8 8
-8 35 3 8 3 65 8 125 11 61 3 111 11 113 16 2 6 37 10 79 10 60 0 80 4 100 20
28 21 59 26 65 10 5 -17 210 64 246 98 7 6 18 12 23 12 6 0 7 5 4 10 -4 6 5
10 19 10 16 0 26 6 26 15 0 8 4 15 10 15 5 0 12 11 16 25 4 18 13 25 30 25 18
0 24 5 24 23 0 13 5 28 12 35 9 9 9 12 0 12 -7 0 -12 10 -11 23 0 19 1 20 8 4
6 -17 8 -16 18 6 7 14 17 44 23 66 6 23 15 41 20 41 6 0 10 70 10 175 0 110
-4 175 -10 175 -6 0 -10 33 -10 80 0 64 -3 80 -15 80 -12 0 -15 15 -15 78 0
44 -3 135 -7 203 -7 111 -9 118 -14 64 -5 -50 -6 -42 -7 47 l-2 107 33 5 c17
3 39 5 47 5 8 1 67 8 130 16 63 8 221 26 350 39 852 91 1193 127 2080 220 547
58 1211 128 1475 156 1033 109 1348 142 1970 210 470 51 629 59 747 36z m3308
-311 c38 -20 78 -66 144 -167 46 -71 71 -99 104 -117 84 -45 139 -12 245 149
80 122 122 153 207 153 85 0 127 -31 206 -151 80 -121 108 -150 164 -166 33
-10 45 -18 45 -32 0 -42 -85 -28 -144 23 -23 19 -71 80 -106 134 -70 107 -108
139 -166 139 -51 0 -97 -35 -146 -110 -110 -172 -146 -202 -236 -208 -94 -5
-136 26 -230 171 -56 86 -83 117 -110 130 -88 42 -141 13 -236 -133 -84 -129
-124 -161 -204 -167 -54 -4 -124 21 -120 44 1 6 -5 10 -14 9 -9 0 -18 5 -20
12 -3 8 2 10 14 6 14 -5 15 -4 3 4 -8 6 -17 9 -21 6 -4 -2 -15 8 -24 22 -9 15
-12 24 -7 20 6 -4 15 1 20 10 9 16 11 15 21 -5 21 -38 90 -81 131 -81 57 0 98
35 170 143 78 116 113 153 166 172 42 16 102 11 144 -10z m-10840 -146 c66
-31 115 -78 144 -139 31 -66 30 -225 -2 -294 -31 -68 -87 -134 -144 -169 -26
-17 -48 -32 -48 -34 0 -4 121 -178 163 -234 11 -16 19 -31 16 -33 -2 -2 -67
-10 -143 -18 l-139 -14 -52 71 c-28 38 -66 91 -84 118 -29 42 -36 47 -69 46
-20 -1 -50 -4 -67 -8 l-30 -6 -12 -123 c-6 -68 -13 -126 -16 -128 -5 -6 -268
-36 -273 -32 -1 2 15 188 36 413 21 226 41 446 45 491 l7 81 126 12 c70 8 152
17 182 21 30 5 111 8 180 7 111 -2 131 -5 180 -28z m-834 -106 c-11 -126 -16
-143 -40 -148 -11 -2 -118 -14 -236 -26 -118 -12 -217 -23 -219 -25 -2 -2 -6
-38 -9 -80 l-5 -77 34 6 c63 11 379 40 384 36 5 -5 -13 -200 -19 -206 -2 -2
-96 -14 -209 -26 -113 -12 -207 -24 -210 -27 -2 -3 -8 -40 -12 -82 l-7 -78 39
0 c21 0 133 11 248 24 116 13 212 22 214 20 5 -5 -20 -208 -27 -216 -4 -3
-101 -16 -217 -28 -115 -11 -284 -29 -375 -39 -91 -10 -168 -16 -171 -12 -5 5
79 971 86 979 1 2 691 78 739 81 17 1 18 -5 12 -76z m-1092 -92 c28 -12 64
-32 81 -45 43 -33 85 -116 95 -186 29 -208 -92 -382 -310 -444 -30 -9 -110
-22 -178 -30 -68 -8 -125 -16 -128 -19 -3 -2 -10 -59 -16 -125 -11 -119 -11
-121 -37 -126 -50 -10 -242 -28 -248 -23 -4 5 68 836 82 943 l6 41 82 7 c45 4
134 13 197 21 165 20 312 14 374 -14z m12793 -47 c21 -17 70 -77 108 -135 97
-144 147 -173 232 -132 27 12 54 45 111 131 87 132 125 163 207 170 100 8 150
-30 249 -191 53 -85 85 -113 142 -125 29 -6 40 -13 42 -29 7 -44 -79 -38 -142
11 -18 14 -55 59 -82 102 -69 108 -119 162 -164 175 -33 10 -44 9 -84 -10 -38
-19 -57 -40 -121 -136 -82 -123 -108 -148 -176 -166 -93 -24 -179 31 -263 171
-50 83 -91 127 -133 141 -75 24 -134 -16 -215 -148 -59 -96 -111 -146 -168
-161 -43 -11 -104 -3 -135 18 -34 23 -98 100 -98 118 0 9 -4 22 -8 28 -6 7 -3
17 8 25 16 13 17 12 5 -3 -14 -17 -1 -35 18 -23 15 9 12 -1 -4 -18 -13 -12
-13 -17 1 -37 10 -14 19 -18 25 -12 12 12 1 35 -13 27 -5 -4 -9 -2 -9 3 0 22
14 18 42 -14 39 -44 77 -64 123 -64 62 0 98 30 165 139 61 97 82 123 129 153
41 26 53 29 108 26 51 -3 69 -9 100 -34z m-10186 3 c-1 -12 -15 -9 -19 4 -3 6
1 10 8 8 6 -3 11 -8 11 -12z m-3441 -12 c0 -61 -53 -584 -65 -638 -55 -253
-231 -390 -505 -391 -216 -2 -332 78 -376 258 -16 64 -16 78 11 374 15 169 30
310 34 314 8 9 263 40 270 33 2 -3 -8 -140 -23 -304 -33 -357 -30 -383 51
-424 42 -22 108 -21 158 2 95 43 108 84 140 426 14 154 27 294 30 311 l6 32
92 10 c145 15 177 14 177 -3z m-1138 -134 l67 -22 -36 -102 c-20 -56 -39 -105
-43 -110 -3 -4 -33 2 -65 13 -66 23 -219 28 -276 9 -49 -17 -91 -58 -87 -88 5
-41 45 -60 168 -81 157 -25 216 -46 266 -95 96 -92 84 -272 -24 -383 -104
-107 -336 -168 -534 -142 -101 13 -218 49 -218 67 0 7 19 58 42 113 33 81 44
100 57 94 9 -4 52 -18 96 -31 146 -45 329 -21 362 46 26 54 -15 79 -171 105
-245 41 -320 105 -321 271 0 68 4 89 28 137 50 103 177 183 334 213 106 20
267 13 355 -14z m14757 -225 c28 -18 63 -60 115 -138 80 -122 111 -148 173
-148 60 0 97 31 167 137 71 110 104 145 158 167 103 44 194 -4 281 -148 60
-101 103 -142 160 -157 40 -10 48 -15 45 -33 -4 -26 -35 -32 -83 -16 -55 18
-93 57 -161 160 -86 132 -101 145 -174 145 -72 0 -89 -14 -167 -135 -30 -47
-67 -98 -82 -114 -54 -59 -146 -81 -214 -52 -42 17 -110 94 -170 190 -54 86
-93 116 -152 116 -61 0 -96 -29 -168 -137 -35 -54 -80 -112 -98 -130 -40 -37
-104 -58 -151 -49 -43 8 -98 42 -98 60 0 17 23 16 87 -2 35 -11 48 -10 80 3
52 22 67 38 123 130 57 93 121 161 164 175 48 15 120 4 165 -24z m-643 -205
c2 -7 -1 -23 -6 -35 -7 -17 -9 -17 -9 -3 -1 9 -6 17 -12 17 -8 0 -8 4 -2 13
11 12 10 26 -2 62 -3 11 2 7 11 -10 10 -16 19 -36 20 -44z m-42 23 c3 -8 2
-12 -4 -9 -6 3 -10 10 -10 16 0 14 7 11 14 -7z m96 -80 c0 -3 -6 -2 -12 3 -7
4 -16 8 -20 8 -5 0 -8 3 -8 8 0 4 0 12 0 17 0 6 9 1 20 -10 11 -11 20 -23 20
-26z m-10232 -821 c-10 -2 -26 -2 -35 0 -10 3 -2 5 17 5 19 0 27 -2 18 -5z
m-6780 -2355 c-3 -7 -25 -16 -50 -19 -89 -13 -153 -67 -173 -147 -34 -131 64
-249 200 -240 52 3 61 -4 20 -16 -11 -3 -2 -3 20 -1 52 5 25 -10 -33 -19 -85
-13 -184 39 -229 119 -31 54 -31 151 -2 212 24 49 79 99 124 112 48 14 127 13
123 -1z m52 -8 c18 -12 2 -12 -25 0 -13 6 -15 9 -5 9 8 0 22 -4 30 -9z m12725
-2500 c143 -50 232 -138 271 -271 15 -49 22 -248 11 -289 -16 -58 -74 -177
-109 -222 -44 -56 -47 -60 -88 -88 -19 -13 -37 -27 -40 -31 -14 -17 -149 -72
-212 -85 -106 -22 -277 -17 -342 9 -90 37 -140 72 -184 128 -54 71 -82 151
-89 258 -18 293 166 530 462 596 86 20 257 17 320 -5z m-1365 -126 c0 -3 -42
-65 -93 -137 -52 -73 -119 -168 -149 -212 -52 -76 -87 -126 -367 -525 l-123
-175 -102 -11 c-55 -7 -104 -10 -108 -8 -3 2 28 53 70 113 221 313 327 464
343 489 10 15 84 122 166 237 l149 210 84 11 c105 14 130 16 130 8z m-664 -83
c80 -37 124 -119 124 -234 0 -91 -25 -153 -84 -213 -135 -135 -348 -103 -402
59 -22 66 -15 185 15 248 60 127 227 194 347 140z m-663 -84 c136 -62 197
-186 197 -398 0 -183 -52 -332 -156 -447 -153 -169 -443 -198 -584 -59 -79 79
-111 174 -112 335 0 254 107 459 286 547 89 44 140 55 238 51 55 -3 92 -11
131 -29z m-773 -73 c27 -8 51 -18 54 -23 6 -9 -93 -206 -103 -206 -3 0 -30 6
-60 14 -136 34 -283 -26 -342 -141 -31 -61 -26 -70 24 -43 153 85 367 32 439
-109 30 -58 37 -190 13 -254 -57 -152 -211 -246 -405 -246 -145 0 -241 43
-317 142 -100 132 -101 406 -2 592 39 74 143 179 216 217 143 77 340 100 483
57z m4440 -174 c-8 -5 -28 -9 -45 -9 -30 2 -30 2 5 9 51 11 57 11 40 0z m100
-30 c-8 -5 -26 -10 -40 -10 -20 0 -22 2 -10 10 8 5 26 10 40 10 20 0 22 -2 10
-10z m-2451 -36 c72 -46 104 -116 103 -225 0 -88 -32 -177 -80 -222 -61 -59
-187 -90 -270 -68 -97 27 -147 110 -147 246 0 67 4 89 28 137 53 108 150 162
276 153 35 -2 76 -12 90 -21z m2308 -590 c-3 -3 -12 -4 -19 -1 -8 3 -5 6 6 6
11 1 17 -2 13 -5z m-74 -11 c-7 -2 -19 -2 -25 0 -7 3 -2 5 12 5 14 0 19 -2 13
-5z m-70 -10 c-7 -2 -21 -2 -30 0 -10 3 -4 5 12 5 17 0 24 -2 18 -5z m-14251
-143 c56 -16 95 -54 164 -161 80 -124 110 -149 175 -149 42 0 54 5 88 35 21
19 54 60 72 91 59 97 106 151 151 173 108 52 207 2 300 -153 59 -97 95 -133
151 -147 40 -9 47 -15 47 -35 0 -20 -5 -24 -32 -24 -81 1 -129 42 -225 193
-61 94 -101 127 -157 127 -64 0 -98 -29 -175 -147 -85 -128 -129 -165 -206
-171 -91 -8 -157 43 -245 188 -22 36 -54 80 -71 96 -27 25 -38 29 -90 29 -59
0 -61 -1 -102 -46 -23 -25 -64 -80 -91 -123 -52 -84 -107 -132 -164 -142 -42
-8 -108 7 -105 24 2 6 -4 9 -11 6 -8 -3 -29 8 -47 24 -30 27 -32 31 -19 48 12
13 12 18 3 21 -7 3 -13 12 -12 21 0 14 3 13 15 -5 51 -73 111 -101 174 -83 46
13 73 41 145 150 71 109 98 136 152 155 47 17 67 18 115 5z m-602 -193 c0 -2
-10 -12 -22 -23 l-23 -19 19 23 c18 21 26 27 26 19z m-15 -47 c-3 -5 -1 -10 6
-10 7 0 10 -3 6 -6 -9 -9 -28 6 -22 17 4 5 8 9 11 9 3 0 2 -4 -1 -10z m1442
-152 c39 -23 85 -78 142 -170 52 -82 90 -116 142 -124 33 -6 39 -10 39 -30 0
-21 -5 -24 -40 -24 -76 0 -116 34 -214 181 -74 113 -100 134 -166 134 -62 0
-90 -25 -175 -156 -35 -53 -78 -108 -97 -122 -40 -31 -106 -48 -151 -38 -76
18 -104 45 -210 207 -53 81 -83 105 -141 111 -59 7 -100 -25 -171 -134 -73
-111 -98 -139 -147 -164 -51 -26 -168 -23 -151 4 4 6 1 7 -6 3 -15 -10 -53 23
-44 37 4 7 -1 8 -13 3 -10 -4 -16 -4 -12 -1 3 4 -2 15 -13 26 -10 10 -19 25
-18 32 0 9 2 9 6 -1 4 -10 8 -9 17 4 10 13 15 14 21 4 6 -9 4 -11 -5 -5 -8 5
-11 3 -9 -4 3 -7 9 -12 14 -12 6 0 19 -8 30 -18 50 -46 118 -54 171 -22 17 10
53 52 79 92 26 41 60 92 74 113 79 120 234 130 323 21 14 -16 51 -70 83 -118
65 -100 112 -133 173 -123 55 8 80 31 146 134 69 105 130 168 173 178 16 3 33
7 38 9 20 7 81 -8 112 -27z m-1432 -167 c3 -5 2 -12 -3 -15 -5 -3 -9 1 -9 9 0
17 3 19 12 6z m6450 -152 c-16 -7 -13 -8 12 -5 18 3 35 0 39 -6 4 -7 3 -8 -4
-4 -7 4 -17 4 -24 0 -6 -4 -35 -8 -63 -10 -80 -3 -132 -37 -170 -113 -32 -64
-18 -156 34 -215 30 -34 88 -56 146 -56 39 0 54 -4 53 -12 -10 -50 -138 -31
-209 31 -54 45 -79 100 -79 174 0 129 100 227 230 226 42 0 50 -3 35 -10z
m-5834 -39 c44 -12 101 -73 173 -185 66 -101 103 -128 169 -122 60 5 83 26
155 137 30 47 66 98 81 113 60 65 148 84 227 48 43 -20 75 -56 146 -167 58
-90 92 -122 143 -132 34 -6 40 -11 40 -32 0 -23 -4 -25 -42 -23 -68 3 -113 41
-197 169 -90 136 -122 158 -207 141 -44 -9 -71 -37 -142 -147 -63 -97 -97
-132 -149 -154 -44 -19 -69 -20 -120 -6 -56 16 -90 50 -170 171 -59 89 -80
113 -115 130 -35 17 -48 18 -80 9 -54 -15 -83 -43 -145 -140 -107 -166 -195
-210 -305 -153 -18 10 -35 24 -38 31 -4 11 2 10 22 -3 l28 -18 -20 24 c-27 32
-38 40 -52 34 -6 -2 -19 8 -29 23 -17 27 -17 27 3 9 20 -18 21 -18 19 0 0 10
-7 23 -15 29 -11 9 -11 11 3 11 9 0 16 -4 16 -8 0 -15 53 -70 82 -85 16 -8 47
-16 69 -16 54 -1 96 34 157 129 80 124 94 140 142 167 48 27 93 32 151 16z
m5903 1 c4 -5 -3 -7 -14 -4 -23 6 -26 13 -6 13 8 0 17 -4 20 -9z m-6544 -175
c0 -2 -8 -10 -17 -17 -16 -13 -17 -12 -4 4 13 16 21 21 21 13z m18345 -926
c13 -6 15 -9 5 -9 -13 -1 -13 -3 0 -10 8 -6 18 -7 24 -4 5 3 6 1 2 -5 -4 -7
-15 -8 -29 -3 -37 14 -131 -3 -171 -29 -43 -30 -86 -109 -86 -160 0 -49 37
-118 83 -154 36 -28 46 -31 120 -33 45 -1 86 -2 92 -2 5 -1 -2 -9 -15 -18 -41
-30 -144 -25 -201 9 -202 119 -122 426 111 427 25 0 54 -4 65 -9z"/>
<path d="M22370 11196 c-146 -41 -260 -156 -302 -304 -42 -155 -5 -301 109
-423 122 -131 333 -167 498 -85 122 61 211 173 239 302 l7 31 -68 5 c-88 6
-149 37 -169 83 -27 64 17 116 114 135 87 17 85 15 66 52 -27 52 -115 138
-169 166 -101 51 -225 65 -325 38z"/>
<path d="M23696 11008 c-71 -4 -131 -10 -133 -12 -2 -2 2 -56 9 -120 10 -105
14 -117 32 -121 12 -2 62 -12 111 -20 935 -166 1623 -787 1786 -1615 30 -150
32 -417 5 -555 -89 -452 -353 -795 -786 -1023 -96 -50 -253 -119 -515 -227
-323 -133 -504 -243 -660 -399 -254 -255 -398 -580 -412 -931 -21 -532 282
-998 822 -1265 210 -103 417 -167 665 -206 145 -22 495 -30 661 -14 544 49
1047 235 1459 538 600 441 1022 1103 1195 1870 103 457 102 990 -1 1450 -94
421 -289 852 -532 1174 -521 693 -1499 1261 -2442 1417 -385 64 -863 86 -1264
59z"/>
<path d="M18461 10894 c0 -11 3 -14 6 -6 3 7 2 16 -1 19 -3 4 -6 -2 -5 -13z"/>
<path d="M22832 10894 c-82 -18 -104 -30 -100 -57 4 -31 59 -58 130 -64 l61
-6 -6 63 c-3 34 -9 66 -14 70 -4 4 -36 1 -71 -6z"/>
<path d="M18450 10744 c0 -10 5 -26 10 -34 8 -11 9 -7 4 15 -8 37 -14 45 -14
19z"/>
<path d="M18498 10613 c6 -2 18 -2 25 0 6 3 1 5 -13 5 -14 0 -19 -2 -12 -5z"/>
<path d="M15632 10585 c0 -11 3 -29 8 -40 11 -25 11 1 0 35 -6 20 -8 21 -8 5z"/>
<path d="M15662 10565 c0 -16 2 -22 5 -12 2 9 2 23 0 30 -3 6 -5 -1 -5 -18z"/>
<path d="M15623 10475 c-3 -9 -3 -18 -1 -21 3 -3 8 4 11 16 6 23 -1 27 -10 5z"/>
<path d="M15653 10445 c0 -22 2 -30 4 -17 2 12 2 30 0 40 -3 9 -5 -1 -4 -23z"/>
<path d="M15631 10414 c0 -11 3 -14 6 -6 3 7 2 16 -1 19 -3 4 -6 -2 -5 -13z"/>
<path d="M15640 10369 c0 -5 5 -7 10 -4 6 3 10 8 10 11 0 2 -4 4 -10 4 -5 0
-10 -5 -10 -11z"/>
<path d="M6611 10248 c-28 -40 -78 -113 -112 -161 -63 -90 -77 -121 -62 -130
5 -3 100 -13 212 -22 217 -18 229 -17 211 29 -4 12 -44 96 -89 189 -51 106
-86 167 -95 167 -9 0 -38 -33 -65 -72z"/>
<path d="M12527 10286 c-4 -9 -1 -18 5 -22 7 -4 8 -3 4 4 -4 7 -3 12 3 12 5 0
12 -6 15 -12 3 -7 5 -4 3 6 -3 24 -23 32 -30 12z"/>
<path d="M10292 10250 c0 -14 -3 -36 -6 -50 l-7 -25 11 24 c6 14 16 32 23 40
9 11 9 13 0 8 -7 -4 -13 0 -16 10 -3 12 -5 9 -5 -7z"/>
<path d="M10351 10254 c0 -11 3 -14 6 -6 3 7 2 16 -1 19 -3 4 -6 -2 -5 -13z"/>
<path d="M12546 10242 c2 -2 -3 -14 -11 -26 -20 -28 -20 -57 0 -30 14 19 14
18 15 -3 0 -13 4 -23 9 -23 12 0 7 69 -6 79 -5 5 -8 6 -7 3z"/>
<path d="M9688 10223 c7 -3 16 -2 19 1 4 3 -2 6 -13 5 -11 0 -14 -3 -6 -6z"/>
<path d="M9215 10210 c3 -5 21 -10 38 -9 31 1 31 1 7 9 -36 11 -52 11 -45 0z"/>
<path d="M9750 10210 c19 -5 41 -4 50 0 10 6 -1 9 -35 9 -48 -1 -49 -1 -15 -9z"/>
<path d="M9440 10201 c0 -7 -45 -12 -132 -13 -100 -1 -119 -3 -78 -8 30 -4 46
-8 35 -9 l-20 -2 20 -9 20 -9 -20 -2 c-11 -1 -27 -2 -35 -3 -8 -1 -20 -4 -27
-9 -6 -4 -14 -1 -16 5 -4 10 -7 10 -15 0 -5 -7 -13 -12 -18 -11 -5 1 -22 0
-39 -1 -21 -2 -24 -4 -11 -7 14 -4 16 -7 6 -13 -7 -4 -26 -4 -43 1 -23 6 -35
5 -47 -6 -19 -17 -50 -20 -50 -5 0 6 7 13 15 16 22 9 9 22 -21 22 -16 0 -21
-3 -14 -8 17 -11 -3 -22 -27 -14 -10 3 -2 -4 17 -15 19 -11 50 -20 68 -21 22
0 32 -5 32 -15 0 -11 -12 -15 -42 -16 -24 -1 -47 -1 -51 0 -5 1 -6 -3 -3 -8 8
-12 -21 -18 -52 -13 -15 3 -21 10 -18 18 8 20 3 18 -35 -15 l-34 -30 37 3 c50
4 64 -5 47 -33 -10 -14 -24 -21 -46 -21 -26 0 -34 5 -39 25 -3 14 -3 33 1 42
5 14 4 15 -6 6 -7 -7 -13 -25 -14 -40 -5 -67 -5 -69 -14 -55 -6 10 -11 6 -19
-17 -7 -18 -7 -29 -2 -26 6 4 8 -8 6 -27 -2 -18 -1 -39 1 -45 6 -14 23 -8 23
8 0 6 -5 7 -12 3 -7 -4 -8 -3 -4 5 12 20 26 1 20 -26 -5 -19 -4 -24 5 -18 8 4
11 1 9 -11 -2 -12 17 -28 70 -57 40 -21 75 -37 78 -34 3 3 -7 12 -23 21 -15 8
-24 15 -20 16 12 0 51 -22 62 -36 14 -18 60 -30 50 -13 -6 9 -3 11 9 6 10 -4
22 -7 27 -7 6 0 8 -4 4 -10 -5 -8 22 -8 90 0 17 2 17 3 -5 10 -14 4 -41 8 -61
9 -46 1 -60 27 -24 41 14 5 28 17 31 25 4 8 12 15 20 15 8 0 14 4 14 9 0 12
59 71 70 71 5 0 10 -7 12 -17 3 -15 4 -15 17 0 12 15 11 17 -3 17 -9 0 -16 7
-16 15 0 11 11 15 40 15 22 0 40 5 40 10 0 6 18 10 40 10 38 0 40 2 40 30 l0
30 89 0 c82 0 91 2 108 23 16 21 31 25 108 31 50 4 92 12 93 17 2 5 57 9 123
9 99 0 119 -3 119 -15 0 -11 11 -15 40 -15 29 0 40 4 40 15 0 11 11 15 40 15
29 0 40 -4 40 -15 0 -11 11 -15 40 -15 39 0 40 1 40 35 0 30 -3 35 -24 35 -14
0 -28 5 -32 12 -5 7 -3 8 6 3 8 -5 11 -4 7 2 -10 16 -89 21 -157 11 -29 -5
-38 -4 -25 2 11 5 16 10 10 11 -5 1 -14 3 -20 4 -5 2 -17 3 -24 4 -11 1 -12 4
-4 12 8 8 17 8 32 -1 12 -6 32 -8 44 -5 17 5 19 4 7 -4 -13 -9 -12 -11 6 -11
11 0 21 6 21 14 0 14 -67 40 -129 51 -21 3 -38 10 -38 15 0 6 -5 10 -10 10 -6
0 -6 -7 2 -19 7 -11 18 -17 27 -14 10 4 9 0 -4 -10 -24 -19 -62 -22 -67 -5 -3
7 -22 13 -44 14 -21 1 -64 6 -94 11 l-55 10 85 0 c47 0 90 -3 95 -7 17 -13 55
-22 55 -13 0 12 -78 33 -120 32 -19 0 -106 3 -192 6 -111 5 -158 3 -158 -4z
m597 -57 c-3 -3 -12 -4 -19 -1 -8 3 -5 6 6 6 11 1 17 -2 13 -5z m-87 -54 c0
-5 -7 -10 -15 -10 -8 0 -15 5 -15 10 0 6 7 10 15 10 8 0 15 -4 15 -10z m190 0
c13 -9 13 -10 0 -10 -8 0 -22 5 -30 10 -13 9 -13 10 0 10 8 0 22 -5 30 -10z
m-463 -16 c-3 -3 -12 -4 -19 -1 -8 3 -5 6 6 6 11 1 17 -2 13 -5z m83 -24 c0
-5 -18 -10 -40 -10 -22 0 -40 5 -40 10 0 6 18 10 40 10 22 0 40 -4 40 -10z
m-963 -137 c-3 -10 -5 -4 -5 12 0 17 2 24 5 18 2 -7 2 -21 0 -30z m92 -189
c14 -12 -19 -1 -35 12 -18 14 -18 14 6 3 14 -6 27 -13 29 -15z m61 16 c-8 -5
-19 -10 -25 -10 -5 0 -3 5 5 10 8 5 20 10 25 10 6 0 3 -5 -5 -10z m70 -30 c0
-13 -40 -13 -60 0 -11 7 -5 10 23 10 20 0 37 -4 37 -10z"/>
<path d="M12577 10171 c-4 -18 -5 -37 -2 -41 3 -5 9 -30 14 -56 7 -35 6 -51
-3 -60 -10 -10 -12 -2 -9 39 4 40 2 49 -7 37 -9 -12 -10 -11 -5 7 6 21 4 22
-24 12 -36 -13 -36 -13 -13 -39 9 -11 17 -24 17 -28 0 -4 4 -13 9 -21 7 -11 5
-13 -6 -8 -12 4 -14 1 -11 -14 3 -11 0 -19 -7 -19 -7 0 -10 -6 -7 -14 4 -10 0
-12 -15 -8 -16 4 -19 2 -13 -8 5 -9 4 -11 -3 -6 -8 5 -12 -1 -12 -18 0 -14 -5
-28 -10 -31 -6 -4 -8 -11 -5 -16 4 -5 2 -9 -2 -9 -5 0 -10 -17 -11 -37 -3 -38
-3 -38 14 -15 9 13 14 34 11 47 -2 14 0 22 5 19 5 -4 9 -23 7 -43 -4 -76 -2
-81 36 -81 34 0 35 1 35 40 0 39 1 40 35 40 30 0 35 3 36 25 1 14 3 30 4 35 1
6 3 13 4 18 2 8 21 -19 21 -31 0 -5 -5 -5 -12 -1 -8 5 -9 2 -3 -12 4 -10 8
-35 7 -54 0 -26 2 -28 5 -10 3 14 9 30 14 35 7 7 8 4 4 -8 -4 -9 -4 -28 -1
-42 5 -21 9 -23 20 -13 9 8 11 17 5 23 -5 5 -9 23 -9 41 0 18 -5 34 -12 36 -7
3 -13 15 -13 29 -2 28 -15 90 -22 102 -3 4 -11 3 -19 -4 -8 -6 -17 -9 -21 -5
-3 3 -1 6 5 6 8 0 9 7 2 26 -12 31 -13 47 -2 40 5 -3 9 1 9 9 0 8 -5 11 -10 8
-6 -4 -8 3 -5 15 4 14 2 20 -4 16 -7 -5 -9 2 -5 17 3 13 2 33 -2 44 -7 16 -9
14 -14 -14z m-7 -123 c0 -19 -2 -20 -10 -8 -13 19 -13 30 0 30 6 0 10 -10 10
-22z m-12 -83 c-2 -24 3 -39 12 -45 11 -7 7 -10 -15 -9 -16 0 -25 3 -18 5 7 3
9 12 6 20 -6 15 4 64 13 64 3 0 4 -16 2 -35z"/>
<path d="M12477 10177 c-3 -8 3 -14 15 -14 16 -2 17 1 8 13 -15 17 -17 17 -23
1z"/>
<path d="M9030 10170 c0 -6 7 -10 15 -10 8 0 15 2 15 4 0 2 -7 6 -15 10 -8 3
-15 1 -15 -4z"/>
<path d="M9148 10173 c7 -3 16 -2 19 1 4 3 -2 6 -13 5 -11 0 -14 -3 -6 -6z"/>
<path d="M9808 10173 c6 -2 18 -2 25 0 6 3 1 5 -13 5 -14 0 -19 -2 -12 -5z"/>
<path d="M9123 10155 c0 -7 6 -11 14 -8 7 3 13 6 13 8 0 2 -6 5 -13 8 -8 3
-14 -1 -14 -8z"/>
<path d="M9188 10163 c6 -2 18 -2 25 0 6 3 1 5 -13 5 -14 0 -19 -2 -12 -5z"/>
<path d="M10261 10152 c-15 -29 -14 -35 7 -27 14 5 15 4 5 -6 -22 -22 -14 -36
17 -35 27 1 45 16 19 16 -7 0 -8 11 -4 29 3 17 2 32 -4 36 -6 3 -11 0 -11 -7
0 -10 -2 -10 -9 1 -7 11 -11 10 -20 -7z"/>
<path d="M12471 10134 c0 -11 3 -14 6 -6 3 7 2 16 -1 19 -3 4 -6 -2 -5 -13z"/>
<path d="M12435 10081 c-4 -12 -4 -25 -1 -28 3 -4 6 2 6 13 1 14 5 10 14 -11
l13 -30 5 27 c3 15 2 25 -3 22 -4 -2 -12 3 -17 12 -9 15 -10 15 -17 -5z"/>
<path d="M13526 10057 c3 -10 9 -15 12 -12 3 3 0 11 -7 18 -10 9 -11 8 -5 -6z"/>
<path d="M8825 10050 c-3 -5 -1 -10 4 -10 6 0 11 5 11 10 0 6 -2 10 -4 10 -3
0 -8 -4 -11 -10z"/>
<path d="M12620 10051 c0 -6 4 -13 10 -16 6 -3 7 1 4 9 -7 18 -14 21 -14 7z"/>
<path d="M12440 10028 c0 -9 5 -20 10 -23 13 -8 13 5 0 25 -8 13 -10 13 -10
-2z"/>
<path d="M15590 10016 c0 -9 -4 -15 -8 -12 -4 2 -6 -12 -3 -32 l5 -37 8 44 c4
25 5 47 3 50 -3 2 -5 -3 -5 -13z"/>
<path d="M12465 9998 c-8 -29 2 -55 16 -41 5 5 5 22 0 38 l-8 30 -8 -27z"/>
<path d="M8767 9973 c-4 -3 -7 -11 -7 -17 0 -6 5 -5 12 2 6 6 9 14 7 17 -3 3
-9 2 -12 -2z"/>
<path d="M12389 9911 c-8 -28 -15 -38 -21 -29 -10 16 -9 0 1 -27 7 -17 9 -16
15 13 4 18 15 39 23 48 11 11 13 18 5 26 -7 7 -14 -2 -23 -31z"/>
<path d="M15585 9919 c-4 -6 -5 -12 -2 -15 2 -3 7 2 10 11 7 17 1 20 -8 4z"/>
<path d="M18688 9893 c6 -2 18 -2 25 0 6 3 1 5 -13 5 -14 0 -19 -2 -12 -5z"/>
<path d="M18625 9880 c19 -8 18 -9 -4 -9 -13 -1 -22 -4 -18 -7 3 -3 21 -3 39
1 29 7 30 9 13 16 -28 11 -56 10 -30 -1z"/>
<path d="M18438 9873 c6 -2 18 -2 25 0 6 3 1 5 -13 5 -14 0 -19 -2 -12 -5z"/>
<path d="M18543 9873 c9 -2 25 -2 35 0 9 3 1 5 -18 5 -19 0 -27 -2 -17 -5z"/>
<path d="M15562 9780 c0 -14 2 -19 5 -12 2 6 2 18 0 25 -3 6 -5 1 -5 -13z"/>
<path d="M12301 9772 c0 -13 -5 -20 -11 -17 -6 4 -7 -1 -3 -11 5 -15 7 -15 15
0 5 9 7 24 5 34 -3 12 -5 10 -6 -6z"/>
<path d="M9125 9759 c-10 -15 -2 -19 24 -12 17 4 19 8 9 14 -18 12 -26 11 -33
-2z"/>
<path d="M12703 9755 c-3 -9 -3 -18 -1 -21 3 -3 8 4 11 16 6 23 -1 27 -10 5z"/>
<path d="M12301 9713 c-9 -19 -15 -23 -20 -14 -7 10 -9 10 -14 -1 -9 -24 23
-17 40 9 9 13 14 26 11 28 -3 3 -10 -7 -17 -22z"/>
<path d="M15551 9709 c0 -13 4 -33 9 -44 7 -14 8 -8 3 20 -7 46 -13 59 -12 24z"/>
<path d="M12720 9704 c0 -5 7 -18 15 -28 8 -11 15 -16 15 -10 0 5 -7 18 -15
28 -8 11 -15 16 -15 10z"/>
<path d="M12680 9684 c0 -8 5 -12 10 -9 6 3 10 10 10 16 0 5 -4 9 -10 9 -5 0
-10 -7 -10 -16z"/>
<path d="M18366 9683 c6 -4 14 -15 17 -23 5 -11 6 -9 4 4 -1 11 -9 21 -17 23
-10 3 -11 2 -4 -4z"/>
<path d="M15576 9610 c-4 -35 -3 -67 3 -78 7 -12 8 -5 5 28 -4 32 -3 41 5 31
7 -11 8 -2 4 30 -3 24 -7 45 -8 47 -1 1 -5 -24 -9 -58z"/>
<path d="M18352 9645 c0 -16 2 -22 5 -12 2 9 2 23 0 30 -3 6 -5 -1 -5 -18z"/>
<path d="M12266 9651 c-3 -5 1 -11 9 -14 9 -4 12 -1 8 9 -6 16 -10 17 -17 5z"/>
<path d="M15551 9628 c0 -9 -4 -25 -7 -35 -5 -17 -5 -17 6 0 6 10 9 25 7 35
-4 15 -5 15 -6 0z"/>
<path d="M18367 9613 c-4 -3 -7 -16 -6 -27 0 -19 1 -19 10 3 10 24 8 36 -4 24z"/>
<path d="M12303 9571 c4 -28 12 -34 14 -11 1 11 -2 22 -8 25 -5 4 -8 -3 -6
-14z"/>
<path d="M12731 9574 c0 -11 3 -14 6 -6 3 7 2 16 -1 19 -3 4 -6 -2 -5 -13z"/>
<path d="M18381 9574 c0 -11 3 -14 6 -6 3 7 2 16 -1 19 -3 4 -6 -2 -5 -13z"/>
<path d="M12208 9568 c7 -7 12 -19 12 -27 -1 -13 -4 -12 -15 3 -8 11 -15 15
-15 9 0 -7 4 -14 10 -18 5 -3 6 -13 3 -21 -3 -9 -2 -19 3 -23 17 -11 34 -61
34 -96 0 -35 0 -35 -45 -35 -33 0 -45 -4 -45 -15 0 -8 5 -15 11 -15 6 0 9 -10
7 -22 -4 -20 0 -23 34 -25 38 -1 38 -1 38 38 0 39 0 39 40 39 l40 0 0 40 0 40
-40 0 c-33 0 -40 3 -40 19 0 11 -4 23 -10 26 -5 3 -10 16 -9 28 0 21 1 21 9 2
13 -29 12 -3 -1 34 -6 17 -16 31 -22 31 -7 0 -7 -4 1 -12z"/>
<path d="M15552 9545 c0 -16 2 -22 5 -12 2 9 2 23 0 30 -3 6 -5 -1 -5 -18z"/>
<path d="M18351 9534 c0 -11 3 -14 6 -6 3 7 2 16 -1 19 -3 4 -6 -2 -5 -13z"/>
<path d="M12177 9515 c-4 -11 -11 -30 -17 -43 -6 -15 -6 -21 0 -17 6 3 10 3
10 -2 0 -4 11 -9 24 -9 22 -2 23 0 13 17 -7 11 -13 15 -15 9 -2 -5 -8 -10 -13
-10 -13 0 -11 28 2 32 6 2 9 13 7 23 -4 20 -4 20 -11 0z"/>
<path d="M18372 9500 c0 -14 2 -19 5 -12 2 6 2 18 0 25 -3 6 -5 1 -5 -13z"/>
<path d="M12281 9484 c0 -11 3 -14 6 -6 3 7 2 16 -1 19 -3 4 -6 -2 -5 -13z"/>
<path d="M18352 9465 c0 -16 2 -22 5 -12 2 9 2 23 0 30 -3 6 -5 -1 -5 -18z"/>
<path d="M12146 9425 c-3 -8 -1 -15 4 -15 6 0 10 7 10 15 0 8 -2 15 -4 15 -2
0 -6 -7 -10 -15z"/>
<path d="M12125 9357 c-4 -10 -5 -21 -1 -24 10 -10 18 4 13 24 -4 17 -4 17
-12 0z"/>
<path d="M12088 9310 l-17 -29 52 -14 c39 -11 72 -13 127 -7 l75 8 -80 0
c-105 -1 -105 -1 -99 20 5 14 4 15 -5 2 -9 -12 -12 -13 -20 -1 -7 11 -9 11
-13 0 -3 -8 -9 -11 -13 -7 -4 4 -2 14 5 22 6 9 10 20 8 25 -1 6 -11 -3 -20
-19z"/>
<path d="M12070 9260 c0 -9 69 -24 76 -17 3 2 -13 9 -36 15 -22 5 -40 6 -40 2z"/>
<path d="M12050 9240 c0 -5 5 -10 11 -10 5 0 7 5 4 10 -3 6 -8 10 -11 10 -2 0
-4 -4 -4 -10z"/>
<path d="M15492 9100 c0 -14 2 -19 5 -12 2 6 2 18 0 25 -3 6 -5 1 -5 -13z"/>
<path d="M15501 9054 c0 -11 3 -14 6 -6 3 7 2 16 -1 19 -3 4 -6 -2 -5 -13z"/>
<path d="M15490 9020 c0 -5 5 -10 11 -10 5 0 7 5 4 10 -3 6 -8 10 -11 10 -2 0
-4 -4 -4 -10z"/>
<path d="M8291 8986 c2 -2 18 -6 34 -10 22 -5 26 -4 15 4 -14 9 -59 15 -49 6z"/>
<path d="M8405 8950 c3 -4 14 -10 25 -13 11 -3 18 -2 15 3 -3 4 -14 10 -25 13
-11 3 -18 2 -15 -3z"/>
<path d="M8468 8923 c6 -2 18 -2 25 0 6 3 1 5 -13 5 -14 0 -19 -2 -12 -5z"/>
<path d="M8418 8913 c7 -3 16 -2 19 1 4 3 -2 6 -13 5 -11 0 -14 -3 -6 -6z"/>
<path d="M8435 8899 c-17 -8 -15 -9 9 -5 40 5 97 -20 90 -39 -7 -18 30 -21 70
-5 16 6 27 6 31 0 6 -9 -7 -14 -30 -11 -5 1 -2 -5 7 -12 10 -8 15 -17 11 -20
-3 -4 -1 -7 5 -7 7 0 12 -4 12 -9 0 -5 14 -23 31 -40 22 -22 40 -31 64 -31 24
0 39 -7 53 -25 19 -24 24 -25 136 -25 116 0 116 0 116 -24 0 -23 4 -24 80 -31
44 -4 80 -11 80 -16 0 -5 38 -9 84 -9 62 0 87 -4 96 -15 13 -16 75 -21 66 -6
-5 7 15 21 30 21 2 0 4 -18 4 -40 0 -22 5 -40 10 -40 6 0 10 4 10 9 0 5 7 11
15 15 12 4 14 0 9 -22 -4 -20 -3 -23 5 -12 8 13 8 54 2 115 -1 6 -5 4 -10 -3
-7 -11 -9 -11 -14 2 -3 8 -2 18 4 22 12 7 -52 68 -95 89 -32 17 -60 20 -36 5
10 -7 11 -10 2 -10 -7 0 -15 6 -18 14 -3 8 -20 18 -37 21 -18 4 -41 9 -52 11
-16 4 -17 3 -5 -5 13 -10 13 -11 0 -11 -13 0 -13 -2 0 -11 12 -9 12 -10 -3 -5
-10 3 -28 6 -40 7 -20 1 -20 2 3 9 l25 8 -23 1 c-14 1 -26 9 -29 19 -3 15 -23
21 -96 32 -51 8 -102 13 -114 11 -11 -1 -24 3 -28 8 -3 6 -36 11 -73 11 -47 0
-63 3 -52 10 12 8 11 10 -7 10 -12 0 -25 -4 -28 -10 -3 -5 -14 -10 -23 -9 -14
0 -13 2 3 9 16 7 13 9 -17 9 -21 1 -38 6 -38 11 0 6 -23 10 -51 10 -27 0 -48
3 -46 8 3 4 -18 8 -45 9 -28 0 -69 4 -92 6 -22 3 -50 2 -61 -4z m140 -19 c-3
-5 -12 -10 -20 -10 -8 0 -17 5 -20 10 -4 6 5 10 20 10 15 0 24 -4 20 -10z
m218 -57 c-7 -2 -21 -2 -30 0 -10 3 -4 5 12 5 17 0 24 -2 18 -5z m124 -9 c-3
-3 -12 -4 -19 -1 -8 3 -5 6 6 6 11 1 17 -2 13 -5z m410 -80 c-3 -3 -12 -4 -19
-1 -8 3 -5 6 6 6 11 1 17 -2 13 -5z m158 -74 c12 -19 -12 -10 -31 11 -19 22
-19 22 3 10 12 -6 25 -16 28 -21z m-287 5 c-2 -1 -13 -8 -25 -14 -18 -9 -23
-9 -23 1 0 7 12 14 26 14 14 1 24 1 22 -1z"/>
<path d="M8460 8880 c0 -5 7 -10 16 -10 8 0 12 5 9 10 -3 6 -10 10 -16 10 -5
0 -9 -4 -9 -10z"/>
<path d="M8548 8803 c6 -2 18 -2 25 0 6 3 1 5 -13 5 -14 0 -19 -2 -12 -5z"/>
<path d="M9210 8786 c0 -2 9 -6 20 -9 11 -3 18 -1 14 4 -5 9 -34 13 -34 5z"/>
<path d="M13071 8618 c-1 -14 -10 -18 -40 -18 -22 0 -42 -4 -46 -10 -3 -5 15
-7 47 -3 29 3 54 6 54 7 1 1 -2 10 -7 21 -6 17 -8 17 -8 3z"/>
<path d="M12988 8613 c6 -2 18 -2 25 0 6 3 1 5 -13 5 -14 0 -19 -2 -12 -5z"/>
<path d="M9058 8583 c12 -2 32 -2 45 0 12 2 2 4 -23 4 -25 0 -35 -2 -22 -4z"/>
<path d="M12718 8573 c7 -3 16 -2 19 1 4 3 -2 6 -13 5 -11 0 -14 -3 -6 -6z"/>
<path d="M12925 8570 c-13 -6 -15 -9 -5 -9 8 0 22 4 30 9 18 12 2 12 -25 0z"/>
<path d="M13033 8573 c9 -2 25 -2 35 0 9 3 1 5 -18 5 -19 0 -27 -2 -17 -5z"/>
<path d="M12508 8563 c7 -3 16 -2 19 1 4 3 -2 6 -13 5 -11 0 -14 -3 -6 -6z"/>
<path d="M9298 8553 c12 -2 32 -2 45 0 12 2 2 4 -23 4 -25 0 -35 -2 -22 -4z"/>
<path d="M13050 8551 c0 -5 -3 -18 -7 -28 -6 -16 -5 -16 10 -4 19 15 23 41 7
41 -5 0 -10 -4 -10 -9z"/>
<path d="M10457 8531 c-4 -17 -3 -21 5 -13 5 5 8 16 6 23 -3 8 -7 3 -11 -10z"/>
<path d="M12248 8543 c6 -2 18 -2 25 0 6 3 1 5 -13 5 -14 0 -19 -2 -12 -5z"/>
<path d="M12326 8539 c-11 -7 -48 -9 -95 -6 -52 4 -68 3 -51 -3 18 -7 3 -8
-50 -5 -46 2 -63 1 -45 -4 22 -5 9 -8 -50 -9 -44 -1 -91 -3 -105 -3 -14 0 -36
-3 -50 -6 -24 -5 -24 -6 -5 -14 16 -8 15 -8 -5 -3 -14 4 -43 6 -65 5 -48 -1
-68 -23 -60 -66 2 -16 2 -24 -1 -17 -5 10 -9 10 -22 0 -14 -11 -15 -10 -8 7
14 39 19 75 8 75 -5 0 -8 -10 -5 -22 3 -17 2 -19 -5 -9 -7 9 -12 10 -16 2 -4
-6 -2 -11 4 -11 15 0 2 -42 -17 -53 -8 -5 -11 -16 -8 -27 3 -10 1 -21 -4 -25
-6 -3 -8 0 -5 8 3 8 1 18 -5 22 -7 4 -8 0 -4 -11 5 -12 3 -15 -6 -9 -10 6 -11
3 -1 -14 6 -12 16 -18 22 -15 7 4 8 2 4 -5 -4 -6 -15 -9 -24 -7 -19 6 -56 -49
-45 -66 3 -6 1 -8 -5 -4 -7 4 -10 -14 -8 -60 3 -62 2 -65 -11 -40 -10 20 -11
31 -3 47 7 11 9 23 6 26 -3 3 -15 -16 -26 -42 -11 -26 -18 -50 -15 -53 2 -3 8
6 13 18 l9 24 6 -26 c4 -14 9 -32 12 -40 4 -9 -3 -14 -22 -16 -16 -1 -34 -10
-40 -19 -7 -9 -13 -13 -13 -7 0 5 -5 2 -10 -6 -5 -8 -10 -19 -10 -25 0 -5 4
-3 9 4 18 28 24 -34 8 -71 -18 -39 -30 -148 -16 -148 5 0 9 -10 9 -22 0 -19 2
-20 10 -8 9 13 10 13 10 0 -1 -8 -17 -22 -36 -32 -20 -9 -33 -14 -30 -11 3 4
1 12 -5 19 -6 8 -9 20 -6 29 4 8 2 17 -3 20 -6 4 -10 12 -10 18 0 8 3 8 9 -1
7 -11 9 -11 14 2 4 9 3 16 -2 16 -5 0 -12 10 -15 23 -6 20 -7 21 -17 4 -5 -9
-7 -22 -4 -27 3 -6 1 -10 -4 -10 -6 0 -11 -5 -11 -11 0 -5 5 -7 10 -4 6 3 10
1 10 -4 0 -6 -9 -11 -20 -11 -20 0 -25 -15 -14 -43 3 -10 14 -14 29 -11 19 3
23 0 22 -15 -1 -11 -3 -18 -5 -16 -2 2 -15 0 -28 -5 -17 -7 -24 -6 -24 3 0 6
-5 4 -11 -5 -5 -10 -20 -18 -32 -19 -21 -1 -20 -2 3 -9 27 -9 173 -12 152 -3
-10 4 -8 11 9 29 16 17 33 24 61 24 34 0 38 3 38 24 0 23 51 86 70 86 5 0 10
35 12 78 l3 77 38 3 c20 2 37 7 37 12 0 11 59 70 71 70 5 0 9 10 9 22 0 12 7
30 17 40 15 17 15 18 0 18 -10 0 -17 7 -17 15 0 12 16 15 80 15 47 0 80 4 80
10 0 6 18 10 40 10 29 0 40 4 40 15 0 11 -11 15 -40 15 -29 0 -40 4 -40 15 0
12 16 15 80 15 47 0 80 4 80 10 0 6 18 10 40 10 38 0 40 2 40 30 0 28 2 30 40
30 22 0 40 5 40 10 0 6 33 10 80 10 l80 0 0 55 0 55 -37 0 c-41 0 -77 18 -55
27 6 2 12 14 12 26 -1 21 -1 21 -14 4 -8 -10 -31 -21 -52 -24 -22 -3 -36 -2
-32 2 4 4 17 8 29 9 12 0 24 7 27 14 5 15 -7 15 -32 1z m-81 -41 c-9 -6 -19
-7 -22 -4 -4 3 -1 6 6 6 7 0 9 4 6 10 -4 6 1 7 11 3 15 -6 15 -7 -1 -15z
m-235 2 c-8 -5 -26 -9 -40 -9 -23 1 -23 2 5 9 43 11 52 11 35 0z m183 3 c-7
-2 -21 -2 -30 0 -10 3 -4 5 12 5 17 0 24 -2 18 -5z m-258 -21 c-3 -3 -11 0
-18 7 -9 10 -8 11 6 5 10 -3 15 -9 12 -12z m382 12 c-3 -3 -12 -4 -19 -1 -8 3
-5 6 6 6 11 1 17 -2 13 -5z m-130 -10 c-3 -3 -12 -4 -19 -1 -8 3 -5 6 6 6 11
1 17 -2 13 -5z m-409 -16 c1 -7 4 -25 8 -40 5 -22 3 -28 -10 -28 -19 0 -21 11
-4 28 9 9 8 12 -5 12 -19 0 -20 2 -11 24 7 19 20 21 22 4z m-68 -128 c0 -11
-4 -20 -9 -20 -5 0 -7 9 -4 20 3 11 7 20 9 20 2 0 4 -9 4 -20z m460 1 c0 -6
-4 -13 -10 -16 -5 -3 -10 1 -10 9 0 9 5 16 10 16 6 0 10 -4 10 -9z m-517 -53
c4 -10 8 -9 17 2 10 13 11 12 6 -3 -3 -10 -6 -23 -6 -28 0 -5 -4 -9 -10 -9 -5
0 -10 7 -10 15 0 8 -4 15 -10 15 -5 0 -10 5 -10 10 0 14 17 12 23 -2z m-13
-39 c0 -6 -4 -7 -10 -4 -5 3 -10 11 -10 16 0 6 5 7 10 4 6 -3 10 -11 10 -16z
m0 -153 c0 -3 -4 -8 -10 -11 -5 -3 -10 -1 -10 4 0 6 5 11 10 11 6 0 10 -2 10
-4z m-7 -103 c-7 -2 -19 -2 -25 0 -7 3 -2 5 12 5 14 0 19 -2 13 -5z m-113 -63
c0 -5 -5 -10 -11 -10 -5 0 -7 5 -4 10 3 6 8 10 11 10 2 0 4 -4 4 -10z m-115
-150 c3 -5 1 -10 -4 -10 -6 0 -11 5 -11 10 0 6 2 10 4 10 3 0 8 -4 11 -10z"/>
<path d="M12440 8530 c0 -5 25 -10 55 -10 30 0 55 5 55 10 0 6 -25 10 -55 10
-30 0 -55 -4 -55 -10z"/>
<path d="M13083 8533 c-15 -5 -17 -33 -3 -33 6 0 10 7 10 16 0 14 3 14 15 4 9
-7 15 -8 15 -2 0 12 -21 21 -37 15z"/>
<path d="M18298 8533 c7 -3 16 -2 19 1 4 3 -2 6 -13 5 -11 0 -14 -3 -6 -6z"/>
<path d="M18158 8523 c7 -3 16 -2 19 1 4 3 -2 6 -13 5 -11 0 -14 -3 -6 -6z"/>
<path d="M18348 8523 c6 -2 18 -2 25 0 6 3 1 5 -13 5 -14 0 -19 -2 -12 -5z"/>
<path d="M18298 8513 c7 -3 16 -2 19 1 4 3 -2 6 -13 5 -11 0 -14 -3 -6 -6z"/>
<path d="M18138 8503 c7 -3 16 -2 19 1 4 3 -2 6 -13 5 -11 0 -14 -3 -6 -6z"/>
<path d="M18360 8500 c0 -5 5 -10 10 -10 6 0 10 5 10 10 0 6 -4 10 -10 10 -5
0 -10 -4 -10 -10z"/>
<path d="M10452 8471 c-1 -36 0 -37 18 -2 6 13 7 21 2 17 -6 -3 -12 0 -15 6
-2 7 -4 -2 -5 -21z"/>
<path d="M12615 8490 c3 -5 8 -10 11 -10 2 0 4 5 4 10 0 6 -5 10 -11 10 -5 0
-7 -4 -4 -10z"/>
<path d="M9450 8462 c6 -12 8 -28 4 -34 -4 -7 -3 -8 4 -4 16 10 15 18 -4 42
-14 18 -15 18 -4 -4z"/>
<path d="M9481 8458 c6 -10 7 -24 3 -30 -4 -7 -3 -8 5 -4 7 5 9 16 5 28 -5 17
-3 20 10 15 10 -4 14 -3 11 2 -3 6 -14 9 -24 8 -16 -1 -18 -5 -10 -19z"/>
<path d="M10470 8442 c0 -6 5 -14 10 -17 6 -4 7 -11 4 -17 -4 -7 -9 -6 -14 3
-6 8 -12 -2 -21 -29 -7 -23 -16 -42 -21 -42 -11 0 -10 14 3 27 6 6 9 17 6 25
-3 8 -11 -1 -20 -22 -11 -26 -12 -37 -4 -42 8 -5 5 -8 -7 -8 -12 0 -16 -5 -12
-16 3 -9 2 -12 -5 -9 -6 4 -8 -3 -4 -22 5 -19 4 -24 -3 -15 -7 11 -11 8 -17
-10 -8 -27 -8 -28 0 -49 4 -10 1 -16 -9 -16 -8 0 -12 7 -9 16 3 12 2 12 -7 -2
-6 -9 -8 -22 -4 -29 4 -6 3 -8 -4 -4 -17 10 -31 -25 -21 -53 9 -25 8 -25 -6
-7 -8 11 -18 16 -22 13 -4 -4 -2 -12 4 -18 12 -12 6 -39 -11 -51 -22 -15 -25
-7 -6 12 12 12 18 25 14 31 -3 6 -21 -7 -40 -28 -36 -41 -45 -64 -16 -42 15
11 15 11 4 -1 -7 -8 -17 -15 -21 -15 -4 0 -41 -31 -82 -69 -41 -38 -68 -66
-61 -62 6 4 12 5 12 2 0 -3 -24 -17 -52 -31 -65 -32 -90 -55 -84 -72 3 -7 1
-13 -4 -13 -6 0 -10 4 -10 10 0 5 -7 7 -15 4 -12 -5 -13 -9 -4 -21 11 -12 8
-13 -13 -8 -15 4 -29 2 -32 -4 -4 -6 0 -11 8 -11 9 0 16 -5 16 -10 0 -6 -15
-9 -32 -8 -24 2 -32 -1 -30 -11 2 -9 -3 -11 -15 -7 -12 4 -11 0 5 -12 l24 -19
-33 -33 c-18 -18 -35 -28 -37 -21 -5 14 -52 15 -52 1 0 -9 13 -14 31 -12 3 1
6 -12 7 -28 0 -16 -2 -29 -6 -29 -25 4 -53 -3 -66 -16 -18 -19 -22 -19 -30 1
-4 10 -2 13 7 8 8 -5 9 -4 2 4 -13 15 -92 17 -125 5 -32 -12 -70 -5 -49 8 10
7 4 9 -21 7 -19 -1 -41 -6 -47 -11 -7 -5 -25 -6 -39 -3 -24 6 -25 5 -11 -9 9
-8 27 -15 41 -15 16 0 26 -6 26 -15 0 -12 -15 -15 -73 -15 -42 0 -78 -5 -85
-12 -8 -8 -15 -8 -27 2 -10 9 -31 10 -72 5 -61 -7 -67 2 -11 15 30 8 29 8 -13
7 -26 -1 -45 -6 -42 -10 3 -4 -19 -6 -49 -3 -39 4 -45 3 -23 -3 30 -9 30 -9
-10 -11 l-40 -3 40 -7 c37 -8 36 -8 -20 -8 -76 0 -83 -1 -68 -10 7 -4 -14 -8
-45 -8 -55 -1 -56 0 -22 10 19 5 37 13 40 17 3 4 14 9 25 12 11 2 7 2 -10 0
-16 -2 -107 -5 -202 -6 -94 -1 -169 -5 -166 -9 2 -5 0 -8 -6 -8 -5 0 -11 4
-13 10 -2 5 -69 11 -151 13 -90 2 -143 0 -135 -6 8 -5 2 -6 -17 -3 -20 5 -25
4 -16 -3 11 -7 10 -10 -5 -13 -10 -2 7 -4 39 -4 34 0 51 3 40 7 -14 6 -12 8
10 8 16 1 38 -4 49 -10 14 -8 23 -8 31 0 8 8 4 11 -13 11 -13 0 -21 2 -18 5 3
3 29 1 59 -4 48 -8 50 -9 17 -10 -21 0 -38 -5 -38 -11 0 -5 -7 -10 -15 -10 -8
0 -15 -7 -15 -15 0 -8 7 -15 15 -15 25 0 17 -27 -11 -34 l-26 -7 24 -17 c13
-9 32 -22 43 -28 11 -6 27 -24 35 -40 16 -28 19 -29 103 -32 48 -1 87 -7 87
-12 0 -6 93 -10 240 -10 153 0 240 4 240 10 0 6 47 10 120 10 l120 0 0 30 0
30 80 0 c47 0 80 4 80 10 0 6 33 10 80 10 l80 0 0 30 c0 28 2 30 40 30 22 0
40 5 40 10 0 6 33 10 80 10 64 0 80 3 80 15 0 11 -11 15 -40 15 -29 0 -40 4
-40 15 0 12 16 15 80 15 47 0 80 4 80 10 0 6 18 10 40 10 36 0 40 3 40 24 0
24 51 86 71 86 5 0 9 11 9 25 0 23 4 25 44 25 26 0 48 6 56 15 10 12 10 15 -4
15 -10 0 -16 9 -16 25 0 23 4 25 40 25 29 0 40 4 40 15 0 8 7 15 15 15 11 0
15 11 15 40 0 22 5 40 10 40 6 0 10 18 10 40 0 22 5 40 10 40 6 0 10 -15 10
-34 0 -19 4 -37 9 -40 5 -4 7 4 3 16 -4 15 -2 19 7 13 9 -5 11 -19 6 -41 -8
-47 -16 -109 -12 -103 1 2 9 13 17 23 13 17 13 18 1 11 -11 -6 -13 -4 -8 9 4
10 7 27 7 37 0 11 4 18 9 15 22 -14 76 85 72 133 -2 19 1 31 7 27 12 -7 34 18
57 64 16 31 16 33 2 21 -10 -7 -17 -20 -17 -27 0 -8 -4 -14 -10 -14 -5 0 -10
-6 -10 -14 0 -8 -4 -18 -10 -21 -6 -4 -7 1 -3 10 3 10 2 20 -3 24 -5 3 -15 17
-21 31 -10 22 -12 23 -12 4 -1 -11 4 -25 9 -30 16 -16 1 -90 -21 -110 -27 -24
-50 -3 -25 22 13 13 17 31 14 82 -2 45 1 67 10 70 8 2 12 27 12 73 0 55 -3 69
-15 69 -10 0 -15 11 -15 35 0 28 4 35 20 35 18 0 18 2 4 42 -8 22 -12 43 -10
45 9 9 46 -38 46 -57 0 -11 7 -20 15 -20 8 0 15 7 15 15 0 9 -7 18 -15 21 -8
4 -15 15 -15 26 0 11 -9 31 -20 45 -11 14 -20 21 -20 15z m-2 -107 c-3 -3 -9
2 -12 12 -6 14 -5 15 5 6 7 -7 10 -15 7 -18z m-71 -126 c0 -21 -3 -26 -9 -16
-4 9 -5 22 -2 31 9 23 11 20 11 -15z m60 -81 c-3 -8 -6 -5 -6 6 -1 11 2 17 5
13 3 -3 4 -12 1 -19z m-57 -68 c0 -11 -4 -20 -10 -20 -5 0 -10 9 -10 20 0 11
5 20 10 20 6 0 10 -9 10 -20z m-30 -50 c0 -5 -4 -10 -10 -10 -5 0 -10 5 -10
10 0 6 5 10 10 10 6 0 10 -4 10 -10z m45 -30 c3 -5 1 -10 -4 -10 -6 0 -11 5
-11 10 0 6 2 10 4 10 3 0 8 -4 11 -10z m-235 -27 c-8 -3 -22 -11 -30 -17 -13
-10 -13 -9 -1 7 7 9 21 17 30 16 13 0 14 -1 1 -6z m307 -41 c-10 -10 -17 -24
-17 -30 0 -7 -4 -12 -10 -12 -5 0 -10 -6 -10 -14 0 -8 -4 -18 -10 -21 -6 -4
-7 1 -3 10 3 10 1 20 -4 24 -6 3 -13 17 -17 31 -7 25 -7 25 10 5 l18 -20 22
22 c27 27 44 31 21 5z m-377 -32 c0 -5 -2 -10 -4 -10 -3 0 -8 5 -11 10 -3 6
-1 10 4 10 6 0 11 -4 11 -10z m-114 -82 c-3 -13 -5 -26 -5 -31 -1 -4 -10 -2
-21 5 l-21 13 22 18 c27 22 30 22 25 -5z m-136 -97 c0 -5 -6 -11 -13 -14 -8
-3 -14 1 -14 9 0 8 6 14 14 14 7 0 13 -4 13 -9z m45 -11 c3 -5 -1 -10 -10 -10
-9 0 -13 5 -10 10 3 6 8 10 10 10 2 0 7 -4 10 -10z m175 -75 c0 -11 -11 -15
-40 -15 -29 0 -40 4 -40 15 0 11 11 15 40 15 29 0 40 -4 40 -15z m-590 -85
c14 -4 21 -9 15 -10 -56 -10 -59 -10 -46 -1 11 7 9 10 -10 14 -17 3 -19 4 -4
5 11 0 31 -4 45 -8z m110 -20 c0 -17 -7 -20 -40 -20 -50 0 -57 27 -7 33 17 2
35 5 40 5 4 1 7 -7 7 -18z m-426 -41 c21 -1 14 -4 -23 -10 -30 -5 -60 -7 -65
-5 -6 2 0 5 14 6 l25 2 -25 9 c-21 7 -20 8 9 4 18 -3 48 -6 65 -6z m-667 -5
c-3 -3 -12 -4 -19 -1 -8 3 -5 6 6 6 11 1 17 -2 13 -5z m613 -54 c0 -6 -20 -9
-45 -8 -24 0 -42 5 -39 10 7 12 84 10 84 -2z"/>
<path d="M11673 8420 c-11 -16 -10 -18 2 -14 8 4 15 12 15 20 0 19 -3 18 -17
-6z"/>
<path d="M13121 8424 c0 -11 3 -14 6 -6 3 7 2 16 -1 19 -3 4 -6 -2 -5 -13z"/>
<path d="M13140 8421 c0 -11 4 -22 9 -25 4 -3 6 6 3 19 -5 30 -12 33 -12 6z"/>
<path d="M9455 8400 c-4 -6 -10 -8 -14 -6 -4 3 -8 -1 -8 -9 0 -13 4 -12 19 2
18 16 22 23 14 23 -3 0 -8 -5 -11 -10z"/>
<path d="M13161 8327 c-13 -21 -12 -21 5 -5 10 10 16 20 13 22 -3 3 -11 -5
-18 -17z"/>
<path d="M10601 8304 c0 -11 3 -14 6 -6 3 7 2 16 -1 19 -3 4 -6 -2 -5 -13z"/>
<path d="M15988 8283 c6 -2 18 -2 25 0 6 3 1 5 -13 5 -14 0 -19 -2 -12 -5z"/>
<path d="M15868 8273 c7 -3 16 -2 19 1 4 3 -2 6 -13 5 -11 0 -14 -3 -6 -6z"/>
<path d="M16048 8273 c6 -2 18 -2 25 0 6 3 1 5 -13 5 -14 0 -19 -2 -12 -5z"/>
<path d="M15825 8260 c27 -12 43 -12 25 0 -8 5 -22 9 -30 9 -10 0 -8 -3 5 -9z"/>
<path d="M15768 8253 c6 -2 18 -2 25 0 6 3 1 5 -13 5 -14 0 -19 -2 -12 -5z"/>
<path d="M15358 8217 c20 -6 36 -6 42 -1 5 5 -8 9 -33 10 l-42 1 33 -10z"/>
<path d="M15495 8222 c-11 -2 -24 -8 -30 -14 -6 -6 14 -8 58 -7 37 1 67 5 67
10 0 8 -67 16 -95 11z"/>
<path d="M15208 8213 c7 -3 16 -2 19 1 4 3 -2 6 -13 5 -11 0 -14 -3 -6 -6z"/>
<path d="M15430 8210 c-9 -6 -10 -10 -3 -10 6 0 15 5 18 10 8 12 4 12 -15 0z"/>
<path d="M15685 8210 c-4 -6 9 -10 32 -10 28 0 34 3 23 10 -20 13 -47 13 -55
0z"/>
<path d="M15258 8203 c7 -3 16 -2 19 1 4 3 -2 6 -13 5 -11 0 -14 -3 -6 -6z"/>
<path d="M15298 8203 c6 -2 18 -2 25 0 6 3 1 5 -13 5 -14 0 -19 -2 -12 -5z"/>
<path d="M15183 8193 c9 -2 25 -2 35 0 9 3 1 5 -18 5 -19 0 -27 -2 -17 -5z"/>
<path d="M15340 8190 c0 -5 5 -10 10 -10 6 0 10 5 10 10 0 6 -4 10 -10 10 -5
0 -10 -4 -10 -10z"/>
<path d="M15380 8190 c19 -13 30 -13 30 0 0 6 -10 10 -22 10 -19 0 -20 -2 -8
-10z"/>
<path d="M10611 8176 c-1 -13 -6 -17 -22 -13 -17 5 -18 3 -8 -9 11 -13 14 -13
27 0 8 8 12 20 9 28 -4 8 -6 6 -6 -6z"/>
<path d="M15098 8183 c7 -3 16 -2 19 1 4 3 -2 6 -13 5 -11 0 -14 -3 -6 -6z"/>
<path d="M15258 8183 c7 -3 16 -2 19 1 4 3 -2 6 -13 5 -11 0 -14 -3 -6 -6z"/>
<path d="M15308 8163 c7 -3 16 -2 19 1 4 3 -2 6 -13 5 -11 0 -14 -3 -6 -6z"/>
<path d="M15368 8163 c6 -2 18 -2 25 0 6 3 1 5 -13 5 -14 0 -19 -2 -12 -5z"/>
<path d="M10502 8130 c0 -19 2 -27 5 -17 2 9 2 25 0 35 -3 9 -5 1 -5 -18z"/>
<path d="M10572 8110 c-7 -11 -8 -20 -3 -20 9 0 24 30 18 36 -1 2 -8 -6 -15
-16z"/>
<path d="M11561 8104 c0 -11 3 -14 6 -6 3 7 2 16 -1 19 -3 4 -6 -2 -5 -13z"/>
<path d="M10507 8071 c4 -3 10 -10 14 -14 3 -4 11 -2 17 5 8 10 5 13 -15 14
-13 1 -21 -1 -16 -5z"/>
<path d="M13755 8050 c3 -6 -2 -10 -12 -11 -10 0 -13 -3 -6 -5 7 -3 20 -1 29
4 15 8 15 9 0 15 -10 4 -15 3 -11 -3z"/>
<path d="M13830 8050 c-11 -7 -5 -8 20 -4 43 8 51 14 19 14 -13 0 -31 -5 -39
-10z"/>
<path d="M13912 8037 c18 -18 83 -23 93 -7 4 6 -10 10 -34 10 -21 0 -48 3 -58
7 -17 6 -17 6 -1 -10z"/>
<path d="M13868 8023 c7 -3 16 -2 19 1 4 3 -2 6 -13 5 -11 0 -14 -3 -6 -6z"/>
<path d="M11500 7994 c0 -8 -4 -12 -10 -9 -5 3 -10 -1 -10 -10 0 -10 -5 -13
-12 -9 -6 4 -8 3 -5 -3 4 -6 2 -24 -2 -41 -7 -24 -6 -30 4 -26 7 3 13 16 13
29 0 13 7 31 16 40 15 15 22 45 11 45 -3 0 -5 -7 -5 -16z"/>
<path d="M13788 8003 c7 -3 16 -2 19 1 4 3 -2 6 -13 5 -11 0 -14 -3 -6 -6z"/>
<path d="M11318 7793 c6 -2 18 -2 25 0 6 3 1 5 -13 5 -14 0 -19 -2 -12 -5z"/>
<path d="M11238 7783 c6 -2 18 -2 25 0 6 3 1 5 -13 5 -14 0 -19 -2 -12 -5z"/>
<path d="M11320 7770 c-13 -9 -13 -10 0 -9 8 0 24 4 35 9 l20 9 -20 0 c-11 0
-27 -4 -35 -9z"/>
<path d="M10427 7697 c-3 -8 1 -14 8 -14 7 0 11 6 8 14 -3 7 -6 13 -8 13 -2 0
-5 -6 -8 -13z"/>
<path d="M10458 7703 c7 -3 16 -2 19 1 4 3 -2 6 -13 5 -11 0 -14 -3 -6 -6z"/>
<path d="M10538 7703 c7 -3 16 -2 19 1 4 3 -2 6 -13 5 -11 0 -14 -3 -6 -6z"/>
<path d="M9741 7679 c-23 -19 -23 -19 -2 -19 12 0 20 6 19 13 -2 6 5 11 15 9
20 -3 23 4 4 11 -7 2 -23 -4 -36 -14z"/>
<path d="M9696 7649 c5 -8 0 -10 -17 -6 -13 3 -31 2 -39 -4 -11 -8 -9 -9 10
-4 22 5 23 5 7 -5 -10 -7 -27 -10 -38 -7 -10 3 -17 1 -14 -3 3 -5 -1 -11 -7
-13 -7 -3 -1 -6 13 -6 14 -1 34 6 45 14 10 8 35 15 54 16 19 1 27 3 18 6 -10
2 -18 9 -18 14 0 5 -5 9 -11 9 -5 0 -7 -5 -3 -11z"/>
<path d="M9675 7610 c-3 -6 1 -7 9 -4 18 7 21 14 7 14 -6 0 -13 -4 -16 -10z"/>
<path d="M9664 7575 c-18 -13 -15 -14 29 -15 46 0 62 12 31 24 -24 9 -39 7
-60 -9z"/>
<path d="M19883 7543 c9 -2 23 -2 30 0 6 3 -1 5 -18 5 -16 0 -22 -2 -12 -5z"/>
<path d="M8280 7410 c0 -5 9 -10 20 -10 11 0 20 5 20 10 0 6 -9 10 -20 10 -11
0 -20 -4 -20 -10z"/>
<path d="M19835 7190 c3 -5 8 -10 11 -10 2 0 4 5 4 10 0 6 -5 10 -11 10 -5 0
-7 -4 -4 -10z"/>
<path d="M19942 7180 c-7 -11 -8 -20 -3 -20 9 0 24 30 18 36 -1 2 -8 -6 -15
-16z"/>
<path d="M19990 7190 c0 -6 7 -10 15 -10 8 0 15 2 15 4 0 2 -7 6 -15 10 -8 3
-15 1 -15 -4z"/>
<path d="M20118 7193 c7 -3 16 -2 19 1 4 3 -2 6 -13 5 -11 0 -14 -3 -6 -6z"/>
<path d="M19803 7133 c9 -2 23 -2 30 0 6 3 -1 5 -18 5 -16 0 -22 -2 -12 -5z"/>
<path d="M19926 7048 c-3 -13 -5 -32 -5 -43 1 -11 5 -2 10 19 10 42 6 62 -5
24z"/>
<path d="M19817 6894 c-8 -8 1 -24 14 -24 5 0 9 7 9 15 0 15 -12 20 -23 9z"/>
<path d="M19867 6873 c-4 -3 -6 -38 -6 -77 l2 -71 8 74 c9 75 8 87 -4 74z"/>
<path d="M19488 6857 c-11 -4 -30 -6 -42 -5 -11 1 -40 -1 -62 -5 -40 -8 -42
-10 -43 -45 0 -20 -3 -56 -5 -79 -6 -53 14 -78 53 -68 14 4 51 8 81 9 114 4
222 19 208 28 -10 7 -8 8 7 7 36 -3 55 1 55 10 0 5 -8 7 -17 5 -16 -5 -18 3
-15 75 3 77 2 81 -17 81 -18 0 -20 -4 -15 -24 3 -14 2 -31 -2 -38 -6 -9 -11
-2 -14 22 l-5 35 -73 0 c-40 0 -82 -3 -94 -8z m107 -7 c-3 -5 -18 -10 -33 -11
-23 0 -24 -1 -7 -8 37 -15 -25 -18 -85 -5 l-55 13 60 -5 c42 -4 56 -2 46 5
-11 7 -5 11 25 14 21 2 43 4 47 5 5 1 5 -2 2 -8z m-202 -27 c-7 -2 -19 -2 -25
0 -7 3 -2 5 12 5 14 0 19 -2 13 -5z m233 -37 c8 -8 14 -25 14 -38 0 -18 -2
-20 -10 -8 -8 13 -10 13 -10 -2 0 -11 10 -18 28 -21 22 -3 20 -4 -10 -6 l-38
-1 0 45 c0 48 4 53 26 31z m-126 -96 c-14 -4 -34 -8 -45 -8 -16 0 -15 2 5 8
14 4 34 8 45 8 16 0 15 -2 -5 -8z m125 0 c-16 -4 -39 -8 -50 -8 -16 0 -15 2 5
8 14 4 36 8 50 8 22 0 22 -1 -5 -8z m-108 -16 c-3 -3 -12 -4 -19 -1 -8 3 -5 6
6 6 11 1 17 -2 13 -5z"/>
<path d="M19752 6710 c0 -14 2 -19 5 -12 2 6 2 18 0 25 -3 6 -5 1 -5 -13z"/>
<path d="M19824 6679 c-3 -6 -1 -16 5 -22 8 -8 11 -5 11 11 0 24 -5 28 -16 11z"/>
<path d="M19780 6620 c0 -33 4 -60 9 -60 6 0 10 27 10 60 0 33 -5 60 -10 60
-5 0 -9 -27 -9 -60z"/>
<path d="M19851 6624 c0 -11 3 -14 6 -6 3 7 2 16 -1 19 -3 4 -6 -2 -5 -13z"/>
<path d="M19742 6590 c0 -19 2 -27 5 -17 2 9 2 25 0 35 -3 9 -5 1 -5 -18z"/>
<path d="M19873 6565 c0 -22 2 -30 4 -17 2 12 2 30 0 40 -3 9 -5 -1 -4 -23z"/>
<path d="M19830 6571 c0 -5 5 -13 10 -16 6 -3 10 -2 10 4 0 5 -4 13 -10 16 -5
3 -10 2 -10 -4z"/>
<path d="M19892 6520 c0 -14 2 -19 5 -12 2 6 2 18 0 25 -3 6 -5 1 -5 -13z"/>
<path d="M19841 6500 c0 -8 4 -24 9 -35 5 -13 9 -14 9 -5 0 8 -4 24 -9 35 -5
13 -9 14 -9 5z"/>
<path d="M19863 6405 c0 -22 2 -30 4 -17 2 12 2 30 0 40 -3 9 -5 -1 -4 -23z"/>
<path d="M19881 6424 c0 -11 3 -14 6 -6 3 7 2 16 -1 19 -3 4 -6 -2 -5 -13z"/>
<path d="M19835 6421 c-3 -5 -1 -12 5 -16 5 -3 10 1 10 9 0 18 -6 21 -15 7z"/>
<path d="M19861 6304 c0 -11 3 -14 6 -6 3 7 2 16 -1 19 -3 4 -6 -2 -5 -13z"/>
<path d="M19849 6249 c-5 -74 -3 -109 6 -109 11 0 13 106 2 117 -4 3 -7 0 -8
-8z"/>
<path d="M19965 6126 c0 -13 3 -22 8 -19 4 2 7 13 7 24 0 10 -3 19 -7 19 -5 0
-8 -11 -8 -24z"/>
<path d="M19865 6090 c4 -6 11 -8 16 -5 14 9 11 15 -7 15 -8 0 -12 -5 -9 -10z"/>
<path d="M19910 6089 c0 -5 5 -7 10 -4 6 3 10 8 10 11 0 2 -4 4 -10 4 -5 0
-10 -5 -10 -11z"/>
<path d="M19803 5873 c9 -2 23 -2 30 0 6 3 -1 5 -18 5 -16 0 -22 -2 -12 -5z"/>
<path d="M19850 5850 c0 -5 7 -10 16 -10 8 0 12 5 9 10 -3 6 -10 10 -16 10 -5
0 -9 -4 -9 -10z"/>
<path d="M19613 5813 c9 -2 23 -2 30 0 6 3 -1 5 -18 5 -16 0 -22 -2 -12 -5z"/>
<path d="M22785 13440 c-3 -5 -5 -10 -3 -11 33 -8 38 -7 27 7 -14 17 -16 17
-24 4z"/>
<path d="M22850 13376 c0 -2 7 -7 16 -10 8 -3 12 -2 9 4 -6 10 -25 14 -25 6z"/>
<path d="M12261 13329 c-46 -4 -85 -9 -87 -11 -5 -6 -28 -267 -23 -272 6 -6
156 12 206 25 90 24 140 127 99 204 -30 55 -69 66 -195 54z"/>
<path d="M10295 13122 l-40 -7 -12 -135 c-6 -74 -10 -136 -8 -138 7 -8 199 21
230 34 55 23 85 71 85 137 0 45 -5 62 -24 84 -23 26 -30 28 -108 30 -45 0
-101 -2 -123 -5z"/>
<path d="M22810 13041 c0 -10 19 -25 25 -20 1 2 -3 10 -11 17 -8 7 -14 8 -14
3z"/>
<path d="M22840 12620 c8 -5 20 -10 25 -10 6 0 3 5 -5 10 -8 5 -19 10 -25 10
-5 0 -3 -5 5 -10z"/>
<path d="M18312 6735 c-169 -52 -255 -298 -157 -447 71 -108 255 -111 368 -6
20 19 37 38 37 43 0 5 7 16 16 26 21 23 44 113 44 175 0 171 -135 263 -308
209z"/>
<path d="M16427 6620 c-52 -41 -59 -173 -12 -228 20 -23 27 -25 51 -17 44 16
69 68 69 147 0 57 -4 70 -24 92 -29 31 -50 33 -84 6z"/>
<path d="M15651 6445 c-61 -52 -101 -177 -101 -318 0 -143 33 -207 106 -207
106 0 184 145 184 345 0 146 -33 205 -114 205 -33 0 -52 -6 -75 -25z"/>
<path d="M14726 6011 c-40 -26 -55 -57 -56 -109 0 -36 5 -49 31 -73 76 -71
219 -8 219 96 0 38 -27 84 -56 95 -42 16 -107 12 -138 -9z"/>
<path d="M17062 6232 c-29 -26 -42 -64 -42 -128 0 -92 38 -138 93 -113 80 36
70 259 -12 259 -10 0 -27 -8 -39 -18z"/>
<path d="M4566 5343 c-3 -3 -6 -11 -6 -16 0 -6 3 -7 6 -4 4 4 15 -3 25 -15 11
-11 19 -17 19 -11 0 15 -36 54 -44 46z"/>
<path d="M4550 4971 c0 -8 50 -34 56 -29 1 2 -11 11 -27 20 -16 9 -29 14 -29
9z"/>
<path d="M22860 3340 c-13 -8 -13 -10 2 -10 9 0 20 5 23 10 8 13 -5 13 -25 0z"/>
<path d="M22808 3323 c6 -2 18 -2 25 0 6 3 1 5 -13 5 -14 0 -19 -2 -12 -5z"/>
</g>
</svg>
